<mxfile host="app.diagrams.net" agent="Mozilla/5.0 (Windows NT 10.0; Win64; x64; rv:138.0) Gecko/20100101 Firefox/138.0" version="27.0.9" pages="3">
  <diagram name="simple_setup" id="M__QngQUtQ9tAb7mmuDp">
    <mxGraphModel dx="746" dy="509" grid="1" gridSize="10" guides="1" tooltips="1" connect="1" arrows="1" fold="1" page="1" pageScale="1" pageWidth="4681" pageHeight="3300" math="0" shadow="0">
      <root>
        <mxCell id="0" />
        <mxCell id="1" parent="0" />
        <mxCell id="V6X9Oc_OC8XAgi1Rc0m2-6" value="" style="group" parent="1" vertex="1" connectable="0">
          <mxGeometry x="550" y="390" width="150" height="30" as="geometry" />
        </mxCell>
        <mxCell id="V6X9Oc_OC8XAgi1Rc0m2-4" value="Shared memory" style="rounded=1;whiteSpace=wrap;html=1;verticalAlign=top;labelBackgroundColor=none;fillColor=#f8cecc;strokeColor=#b85450;" parent="V6X9Oc_OC8XAgi1Rc0m2-6" vertex="1">
          <mxGeometry width="150" height="30.000000000000004" as="geometry" />
        </mxCell>
        <mxCell id="2XhOpbP3KoWVF5wZ-_mL-1" value="" style="endArrow=classic;startArrow=classic;html=1;rounded=0;entryX=0;entryY=0.5;entryDx=0;entryDy=0;exitX=1;exitY=0.5;exitDx=0;exitDy=0;" parent="1" source="w1terzWNmaeZVg-Y9Ltz-2" target="V6X9Oc_OC8XAgi1Rc0m2-4" edge="1">
          <mxGeometry width="50" height="50" relative="1" as="geometry">
            <mxPoint x="520" y="420" as="sourcePoint" />
            <mxPoint x="450" y="540" as="targetPoint" />
          </mxGeometry>
        </mxCell>
        <mxCell id="2XhOpbP3KoWVF5wZ-_mL-2" value="" style="endArrow=classic;startArrow=classic;html=1;rounded=0;exitX=1;exitY=0.5;exitDx=0;exitDy=0;entryX=0;entryY=0.5;entryDx=0;entryDy=0;" parent="1" source="V6X9Oc_OC8XAgi1Rc0m2-4" target="V6X9Oc_OC8XAgi1Rc0m2-2" edge="1">
          <mxGeometry width="50" height="50" relative="1" as="geometry">
            <mxPoint x="770" y="530" as="sourcePoint" />
            <mxPoint x="720" y="480" as="targetPoint" />
          </mxGeometry>
        </mxCell>
        <mxCell id="1C-q7q7IIm8hqeICJK3o-1" value="" style="group" vertex="1" connectable="0" parent="1">
          <mxGeometry x="363" y="375" width="120" height="60" as="geometry" />
        </mxCell>
        <mxCell id="w1terzWNmaeZVg-Y9Ltz-2" value="CVM" style="rounded=0;whiteSpace=wrap;html=1;verticalAlign=top;fillColor=#d5e8d4;strokeColor=#82b366;container=0;" vertex="1" parent="1C-q7q7IIm8hqeICJK3o-1">
          <mxGeometry width="120" height="60" as="geometry" />
        </mxCell>
        <mxCell id="w1terzWNmaeZVg-Y9Ltz-3" value="EDU Driver" style="rounded=0;whiteSpace=wrap;html=1;container=0;" vertex="1" parent="1C-q7q7IIm8hqeICJK3o-1">
          <mxGeometry x="11" y="31.113333333333344" width="100" height="17.77777777777778" as="geometry" />
        </mxCell>
        <mxCell id="1C-q7q7IIm8hqeICJK3o-2" value="" style="group" vertex="1" connectable="0" parent="1">
          <mxGeometry x="770" y="375" width="120" height="60" as="geometry" />
        </mxCell>
        <mxCell id="V6X9Oc_OC8XAgi1Rc0m2-2" value="Proxy" style="rounded=0;whiteSpace=wrap;html=1;verticalAlign=top;fillColor=#f8cecc;strokeColor=#b85450;container=0;" parent="1C-q7q7IIm8hqeICJK3o-2" vertex="1">
          <mxGeometry width="120" height="60" as="geometry" />
        </mxCell>
        <mxCell id="V6X9Oc_OC8XAgi1Rc0m2-3" value="EDU Device" style="rounded=0;whiteSpace=wrap;html=1;container=0;" parent="1C-q7q7IIm8hqeICJK3o-2" vertex="1">
          <mxGeometry x="11" y="31.113333333333344" width="100" height="17.77777777777778" as="geometry" />
        </mxCell>
      </root>
    </mxGraphModel>
  </diagram>
  <diagram id="iSazoWC9X5YeLMpIadl7" name="shared_memory">
    <mxGraphModel dx="746" dy="509" grid="1" gridSize="10" guides="1" tooltips="1" connect="1" arrows="1" fold="1" page="1" pageScale="1" pageWidth="4681" pageHeight="3300" math="0" shadow="0">
      <root>
        <mxCell id="0" />
        <mxCell id="1" parent="0" />
        <mxCell id="NVQKY5LEG7LEXeNk757b-1" value="" style="group" vertex="1" connectable="0" parent="1">
          <mxGeometry x="260" y="810" width="290" height="180" as="geometry" />
        </mxCell>
        <mxCell id="QE2PpRin51TgwMeD3DZh-2" value="Shared memory" style="rounded=0;whiteSpace=wrap;html=1;verticalAlign=top;fontSize=17;container=0;" vertex="1" parent="NVQKY5LEG7LEXeNk757b-1">
          <mxGeometry width="290" height="180" as="geometry" />
        </mxCell>
        <mxCell id="QE2PpRin51TgwMeD3DZh-3" value="" style="rounded=0;whiteSpace=wrap;html=1;container=0;" vertex="1" parent="NVQKY5LEG7LEXeNk757b-1">
          <mxGeometry x="10" y="41.110000000000014" width="40" height="20.74" as="geometry" />
        </mxCell>
        <mxCell id="QE2PpRin51TgwMeD3DZh-4" value="Encrypted Messages" style="rounded=0;whiteSpace=wrap;html=1;container=0;" vertex="1" parent="NVQKY5LEG7LEXeNk757b-1">
          <mxGeometry x="50" y="41.110000000000014" width="230" height="20.74" as="geometry" />
        </mxCell>
        <mxCell id="QE2PpRin51TgwMeD3DZh-6" value="0" style="text;html=1;align=center;verticalAlign=middle;whiteSpace=wrap;rounded=0;fontSize=10;" vertex="1" parent="NVQKY5LEG7LEXeNk757b-1">
          <mxGeometry x="9" y="29" width="10" height="11.11" as="geometry" />
        </mxCell>
        <mxCell id="QE2PpRin51TgwMeD3DZh-8" value="1" style="text;html=1;align=center;verticalAlign=middle;whiteSpace=wrap;rounded=0;fontSize=10;" vertex="1" parent="NVQKY5LEG7LEXeNk757b-1">
          <mxGeometry x="29" y="29" width="10" height="11.11" as="geometry" />
        </mxCell>
        <mxCell id="QE2PpRin51TgwMeD3DZh-9" value="2" style="text;html=1;align=center;verticalAlign=middle;whiteSpace=wrap;rounded=0;fontSize=10;" vertex="1" parent="NVQKY5LEG7LEXeNk757b-1">
          <mxGeometry x="51" y="29" width="10" height="11.11" as="geometry" />
        </mxCell>
        <mxCell id="QE2PpRin51TgwMeD3DZh-12" value="proxyShmem" style="rounded=0;whiteSpace=wrap;html=1;container=0;fontSize=11;" vertex="1" parent="NVQKY5LEG7LEXeNk757b-1">
          <mxGeometry x="10" y="82.33000000000004" width="71" height="20.74" as="geometry" />
        </mxCell>
        <mxCell id="QE2PpRin51TgwMeD3DZh-13" value="Doorbell-&lt;br&gt;Registers" style="text;html=1;align=center;verticalAlign=middle;whiteSpace=wrap;rounded=0;fontSize=8;container=0;" vertex="1" parent="NVQKY5LEG7LEXeNk757b-1">
          <mxGeometry x="1" y="35.92666666666662" width="60" height="31.11111111111111" as="geometry" />
        </mxCell>
        <mxCell id="QE2PpRin51TgwMeD3DZh-14" value="" style="endArrow=none;html=1;rounded=0;exitX=0.5;exitY=1;exitDx=0;exitDy=0;entryX=0.5;entryY=0;entryDx=0;entryDy=0;strokeWidth=1;opacity=40;" edge="1" parent="NVQKY5LEG7LEXeNk757b-1" source="QE2PpRin51TgwMeD3DZh-3" target="QE2PpRin51TgwMeD3DZh-3">
          <mxGeometry width="50" height="50" relative="1" as="geometry">
            <mxPoint x="20" y="90" as="sourcePoint" />
            <mxPoint x="70" y="40" as="targetPoint" />
          </mxGeometry>
        </mxCell>
        <mxCell id="QE2PpRin51TgwMeD3DZh-15" value="256" style="text;html=1;align=center;verticalAlign=middle;whiteSpace=wrap;rounded=0;fontSize=10;" vertex="1" parent="NVQKY5LEG7LEXeNk757b-1">
          <mxGeometry x="10" y="71.22000000000003" width="10" height="11.11" as="geometry" />
        </mxCell>
        <mxCell id="QE2PpRin51TgwMeD3DZh-16" value="39" style="text;html=1;align=center;verticalAlign=middle;whiteSpace=wrap;rounded=0;fontSize=10;" vertex="1" parent="NVQKY5LEG7LEXeNk757b-1">
          <mxGeometry x="71" y="71.22000000000003" width="10" height="11.11" as="geometry" />
        </mxCell>
        <mxCell id="QE2PpRin51TgwMeD3DZh-17" value="Padding" style="rounded=0;whiteSpace=wrap;html=1;container=0;fontSize=11;" vertex="1" parent="NVQKY5LEG7LEXeNk757b-1">
          <mxGeometry x="81" y="82.33000000000004" width="200" height="20.74" as="geometry" />
        </mxCell>
        <mxCell id="QE2PpRin51TgwMeD3DZh-18" value="4095" style="text;html=1;align=center;verticalAlign=middle;whiteSpace=wrap;rounded=0;fontSize=10;" vertex="1" parent="NVQKY5LEG7LEXeNk757b-1">
          <mxGeometry x="266" y="70" width="10" height="11.11" as="geometry" />
        </mxCell>
        <mxCell id="QE2PpRin51TgwMeD3DZh-19" value="DMA region" style="rounded=0;whiteSpace=wrap;html=1;container=0;fontSize=11;" vertex="1" parent="NVQKY5LEG7LEXeNk757b-1">
          <mxGeometry x="9" y="128.13" width="271" height="20.74" as="geometry" />
        </mxCell>
        <mxCell id="QE2PpRin51TgwMeD3DZh-20" value="4096" style="text;html=1;align=center;verticalAlign=middle;whiteSpace=wrap;rounded=0;fontSize=10;" vertex="1" parent="NVQKY5LEG7LEXeNk757b-1">
          <mxGeometry x="14" y="117.01999999999998" width="10" height="11.11" as="geometry" />
        </mxCell>
        <mxCell id="QE2PpRin51TgwMeD3DZh-21" value="1M" style="text;html=1;align=center;verticalAlign=middle;whiteSpace=wrap;rounded=0;fontSize=10;" vertex="1" parent="NVQKY5LEG7LEXeNk757b-1">
          <mxGeometry x="265" y="117.01999999999998" width="10" height="11.11" as="geometry" />
        </mxCell>
        <mxCell id="QE2PpRin51TgwMeD3DZh-22" value="split up in pages of 4K" style="text;html=1;align=center;verticalAlign=middle;whiteSpace=wrap;rounded=0;fontSize=8;container=0;" vertex="1" parent="NVQKY5LEG7LEXeNk757b-1">
          <mxGeometry x="55" y="141.8655555555555" width="180" height="31.11111111111111" as="geometry" />
        </mxCell>
      </root>
    </mxGraphModel>
  </diagram>
  <diagram id="FLA5EwEjU9LcdTK9-PX9" name="address_spaces">
    <mxGraphModel dx="746" dy="509" grid="1" gridSize="10" guides="1" tooltips="1" connect="1" arrows="1" fold="1" page="1" pageScale="1" pageWidth="4681" pageHeight="3300" math="0" shadow="0">
      <root>
        <mxCell id="0" />
        <mxCell id="1" parent="0" />
        <mxCell id="uo7rgtJxaFWtiEwAW4gu-1" value="CVM" style="rounded=0;whiteSpace=wrap;html=1;verticalAlign=top;fontSize=14;fontStyle=1" parent="1" vertex="1">
          <mxGeometry x="145" y="200" width="270" height="190" as="geometry" />
        </mxCell>
        <mxCell id="uo7rgtJxaFWtiEwAW4gu-2" value="Shared memory" style="rounded=1;whiteSpace=wrap;html=1;fillColor=#f8cecc;strokeColor=#b85450;" parent="1" vertex="1">
          <mxGeometry x="476" y="110" width="120" height="60" as="geometry" />
        </mxCell>
        <mxCell id="uo7rgtJxaFWtiEwAW4gu-3" value="Proxy process" style="rounded=0;whiteSpace=wrap;html=1;verticalAlign=top;fontStyle=1;fontSize=14;" parent="1" vertex="1">
          <mxGeometry x="655" y="200" width="270" height="190" as="geometry" />
        </mxCell>
        <mxCell id="uo7rgtJxaFWtiEwAW4gu-4" value="Shared memory" style="rounded=1;whiteSpace=wrap;html=1;fillColor=#f8cecc;strokeColor=#b85450;" parent="1" vertex="1">
          <mxGeometry x="325" y="275" width="80" height="60" as="geometry" />
        </mxCell>
        <mxCell id="uo7rgtJxaFWtiEwAW4gu-5" value="mapped" style="curved=1;endArrow=none;html=1;rounded=0;entryX=0.5;entryY=0;entryDx=0;entryDy=0;exitX=0;exitY=0.5;exitDx=0;exitDy=0;verticalAlign=top;align=left;dashed=1;startArrow=classic;startFill=1;" parent="1" source="uo7rgtJxaFWtiEwAW4gu-2" target="uo7rgtJxaFWtiEwAW4gu-4" edge="1">
          <mxGeometry width="50" height="50" relative="1" as="geometry">
            <mxPoint x="506" y="350" as="sourcePoint" />
            <mxPoint x="556" y="300" as="targetPoint" />
            <Array as="points">
              <mxPoint x="376" y="140" />
            </Array>
          </mxGeometry>
        </mxCell>
        <mxCell id="uo7rgtJxaFWtiEwAW4gu-7" value="mapped" style="curved=1;endArrow=none;html=1;rounded=0;exitX=1;exitY=0.5;exitDx=0;exitDy=0;entryX=0.5;entryY=0;entryDx=0;entryDy=0;verticalAlign=top;align=right;dashed=1;startArrow=classic;startFill=1;" parent="1" source="uo7rgtJxaFWtiEwAW4gu-2" target="uo7rgtJxaFWtiEwAW4gu-12" edge="1">
          <mxGeometry width="50" height="50" relative="1" as="geometry">
            <mxPoint x="746" y="130" as="sourcePoint" />
            <mxPoint x="846" y="210" as="targetPoint" />
            <Array as="points">
              <mxPoint x="696" y="140" />
            </Array>
          </mxGeometry>
        </mxCell>
        <mxCell id="uo7rgtJxaFWtiEwAW4gu-8" value="In-kernel buffers" style="rounded=1;whiteSpace=wrap;html=1;fillColor=#d5e8d4;strokeColor=#82b366;verticalAlign=top;" parent="1" vertex="1">
          <mxGeometry x="155" y="270" width="60" height="70" as="geometry" />
        </mxCell>
        <mxCell id="uo7rgtJxaFWtiEwAW4gu-9" value="DMA buffer" style="rounded=1;whiteSpace=wrap;html=1;" parent="1" vertex="1">
          <mxGeometry x="846" y="278" width="70" height="60" as="geometry" />
        </mxCell>
        <mxCell id="uo7rgtJxaFWtiEwAW4gu-10" value="Encrypt" style="curved=1;endArrow=none;html=1;rounded=0;entryX=1;entryY=0.25;entryDx=0;entryDy=0;exitX=0;exitY=0.25;exitDx=0;exitDy=0;startArrow=classic;startFill=1;fontSize=9;" parent="1" source="uo7rgtJxaFWtiEwAW4gu-4" target="uo7rgtJxaFWtiEwAW4gu-8" edge="1">
          <mxGeometry width="50" height="50" relative="1" as="geometry">
            <mxPoint x="225" y="480" as="sourcePoint" />
            <mxPoint x="275" y="430" as="targetPoint" />
            <Array as="points">
              <mxPoint x="265" y="260" />
            </Array>
          </mxGeometry>
        </mxCell>
        <mxCell id="uo7rgtJxaFWtiEwAW4gu-11" value="Decrypt" style="curved=1;endArrow=none;html=1;rounded=0;entryX=0;entryY=0.75;entryDx=0;entryDy=0;exitX=1;exitY=0.75;exitDx=0;exitDy=0;startArrow=classic;startFill=1;fontSize=9;verticalAlign=bottom;" parent="1" source="uo7rgtJxaFWtiEwAW4gu-8" target="uo7rgtJxaFWtiEwAW4gu-4" edge="1">
          <mxGeometry x="-0.0039" width="50" height="50" relative="1" as="geometry">
            <mxPoint x="375" y="305" as="sourcePoint" />
            <mxPoint x="265" y="285" as="targetPoint" />
            <Array as="points">
              <mxPoint x="270" y="360" />
            </Array>
            <mxPoint as="offset" />
          </mxGeometry>
        </mxCell>
        <mxCell id="uo7rgtJxaFWtiEwAW4gu-12" value="Shared memory" style="rounded=1;whiteSpace=wrap;html=1;fillColor=#f8cecc;strokeColor=#b85450;" parent="1" vertex="1">
          <mxGeometry x="666" y="280" width="80" height="60" as="geometry" />
        </mxCell>
        <mxCell id="uo7rgtJxaFWtiEwAW4gu-14" value="Encrypt" style="curved=1;endArrow=classic;html=1;rounded=0;entryX=1;entryY=0.25;entryDx=0;entryDy=0;exitX=0;exitY=0.25;exitDx=0;exitDy=0;verticalAlign=middle;fontSize=9;" parent="1" source="uo7rgtJxaFWtiEwAW4gu-9" target="uo7rgtJxaFWtiEwAW4gu-12" edge="1">
          <mxGeometry width="50" height="50" relative="1" as="geometry">
            <mxPoint x="651" y="520" as="sourcePoint" />
            <mxPoint x="701" y="470" as="targetPoint" />
            <Array as="points">
              <mxPoint x="801" y="260" />
            </Array>
          </mxGeometry>
        </mxCell>
        <mxCell id="uo7rgtJxaFWtiEwAW4gu-15" value="Decrypt" style="curved=1;endArrow=classic;html=1;rounded=0;entryX=0;entryY=0.75;entryDx=0;entryDy=0;exitX=1;exitY=0.75;exitDx=0;exitDy=0;verticalAlign=bottom;fontSize=9;" parent="1" source="uo7rgtJxaFWtiEwAW4gu-12" target="uo7rgtJxaFWtiEwAW4gu-9" edge="1">
          <mxGeometry width="50" height="50" relative="1" as="geometry">
            <mxPoint x="751" y="460" as="sourcePoint" />
            <mxPoint x="801" y="410" as="targetPoint" />
            <Array as="points">
              <mxPoint x="800" y="360" />
            </Array>
          </mxGeometry>
        </mxCell>
        <mxCell id="uo7rgtJxaFWtiEwAW4gu-17" style="edgeStyle=orthogonalEdgeStyle;rounded=0;orthogonalLoop=1;jettySize=auto;html=1;exitX=0.5;exitY=0;exitDx=0;exitDy=0;entryX=0.5;entryY=1;entryDx=0;entryDy=0;dashed=1;dashPattern=8 8;" parent="1" source="uo7rgtJxaFWtiEwAW4gu-16" target="uo7rgtJxaFWtiEwAW4gu-8" edge="1">
          <mxGeometry relative="1" as="geometry" />
        </mxCell>
        <mxCell id="uo7rgtJxaFWtiEwAW4gu-16" value="vmDMA" style="text;html=1;align=center;verticalAlign=middle;whiteSpace=wrap;rounded=0;" parent="1" vertex="1">
          <mxGeometry x="155" y="430" width="60" height="30" as="geometry" />
        </mxCell>
        <mxCell id="uo7rgtJxaFWtiEwAW4gu-19" style="edgeStyle=orthogonalEdgeStyle;rounded=0;orthogonalLoop=1;jettySize=auto;html=1;entryX=0.5;entryY=1;entryDx=0;entryDy=0;dashed=1;dashPattern=8 8;" parent="1" source="uo7rgtJxaFWtiEwAW4gu-18" target="uo7rgtJxaFWtiEwAW4gu-4" edge="1">
          <mxGeometry relative="1" as="geometry" />
        </mxCell>
        <mxCell id="uo7rgtJxaFWtiEwAW4gu-18" value="vmShmem" style="text;html=1;align=center;verticalAlign=middle;whiteSpace=wrap;rounded=0;" parent="1" vertex="1">
          <mxGeometry x="335" y="430" width="60" height="30" as="geometry" />
        </mxCell>
        <mxCell id="uo7rgtJxaFWtiEwAW4gu-21" style="edgeStyle=orthogonalEdgeStyle;rounded=0;orthogonalLoop=1;jettySize=auto;html=1;entryX=0.5;entryY=1;entryDx=0;entryDy=0;dashed=1;dashPattern=8 8;" parent="1" source="uo7rgtJxaFWtiEwAW4gu-20" target="uo7rgtJxaFWtiEwAW4gu-12" edge="1">
          <mxGeometry relative="1" as="geometry" />
        </mxCell>
        <mxCell id="uo7rgtJxaFWtiEwAW4gu-20" value="proxyShmem" style="text;html=1;align=center;verticalAlign=middle;whiteSpace=wrap;rounded=0;" parent="1" vertex="1">
          <mxGeometry x="676" y="430" width="60" height="30" as="geometry" />
        </mxCell>
        <mxCell id="uo7rgtJxaFWtiEwAW4gu-23" style="edgeStyle=orthogonalEdgeStyle;rounded=0;orthogonalLoop=1;jettySize=auto;html=1;entryX=0.5;entryY=1;entryDx=0;entryDy=0;dashed=1;dashPattern=8 8;" parent="1" source="uo7rgtJxaFWtiEwAW4gu-22" target="uo7rgtJxaFWtiEwAW4gu-9" edge="1">
          <mxGeometry relative="1" as="geometry" />
        </mxCell>
        <mxCell id="uo7rgtJxaFWtiEwAW4gu-22" value="proxyDMA" style="text;html=1;align=center;verticalAlign=middle;whiteSpace=wrap;rounded=0;" parent="1" vertex="1">
          <mxGeometry x="851" y="430" width="60" height="30" as="geometry" />
        </mxCell>
        <mxCell id="uo7rgtJxaFWtiEwAW4gu-24" value="" style="endArrow=none;html=1;rounded=0;" parent="1" edge="1">
          <mxGeometry width="50" height="50" relative="1" as="geometry">
            <mxPoint x="30" y="410" as="sourcePoint" />
            <mxPoint x="940" y="410" as="targetPoint" />
          </mxGeometry>
        </mxCell>
        <mxCell id="uo7rgtJxaFWtiEwAW4gu-25" value="System view" style="text;html=1;align=center;verticalAlign=middle;whiteSpace=wrap;rounded=0;" parent="1" vertex="1">
          <mxGeometry x="20" y="380" width="60" height="30" as="geometry" />
        </mxCell>
        <mxCell id="uo7rgtJxaFWtiEwAW4gu-26" value="Address names" style="text;html=1;align=center;verticalAlign=middle;whiteSpace=wrap;rounded=0;" parent="1" vertex="1">
          <mxGeometry x="20" y="410" width="60" height="30" as="geometry" />
        </mxCell>
        <mxCell id="uo7rgtJxaFWtiEwAW4gu-27" value="" style="rounded=0;whiteSpace=wrap;html=1;" parent="1" vertex="1">
          <mxGeometry x="160" y="307" width="10" height="10" as="geometry" />
        </mxCell>
        <mxCell id="uo7rgtJxaFWtiEwAW4gu-29" value="" style="rounded=0;whiteSpace=wrap;html=1;" parent="1" vertex="1">
          <mxGeometry x="180" y="307" width="10" height="10" as="geometry" />
        </mxCell>
        <mxCell id="uo7rgtJxaFWtiEwAW4gu-30" value="" style="rounded=0;whiteSpace=wrap;html=1;" parent="1" vertex="1">
          <mxGeometry x="200" y="307" width="10" height="10" as="geometry" />
        </mxCell>
        <mxCell id="uo7rgtJxaFWtiEwAW4gu-31" value="" style="rounded=0;whiteSpace=wrap;html=1;" parent="1" vertex="1">
          <mxGeometry x="180" y="325" width="10" height="10" as="geometry" />
        </mxCell>
        <mxCell id="uo7rgtJxaFWtiEwAW4gu-32" value="" style="rounded=0;whiteSpace=wrap;html=1;" parent="1" vertex="1">
          <mxGeometry x="160" y="325" width="10" height="10" as="geometry" />
        </mxCell>
        <mxCell id="uo7rgtJxaFWtiEwAW4gu-33" value="" style="rounded=0;whiteSpace=wrap;html=1;" parent="1" vertex="1">
          <mxGeometry x="200" y="325" width="10" height="10" as="geometry" />
        </mxCell>
      </root>
    </mxGraphModel>
  </diagram>
</mxfile>
